<?xml version="1.0" encoding="utf-8"?><!-- Uploaded to: SVG Repo, www.svgrepo.com, Generator: SVG Repo Mixer Tools -->
<svg width="668" height="668" viewBox="0 0 668 668" fill="none" xmlns="http://www.w3.org/2000/svg">
<path d="M34 600.667C15.5907 600.667 0.666687 615.59 0.666687 634C0.666687 652.41 15.5907 667.333 34 667.333V600.667ZM634 667.333C652.41 667.333 667.333 652.41 667.333 634C667.333 615.59 652.41 600.667 634 600.667V667.333ZM167.333 500.667C148.924 500.667 134 515.59 134 534C134 552.41 148.924 567.333 167.333 567.333V500.667ZM400.667 567.333C419.077 567.333 434 552.41 434 534C434 515.59 419.077 500.667 400.667 500.667V567.333ZM234 400.667C215.591 400.667 200.667 415.59 200.667 434C200.667 452.41 215.591 467.333 234 467.333V400.667ZM334 467.333C352.41 467.333 367.333 452.41 367.333 434C367.333 415.59 352.41 400.667 334 400.667V467.333ZM200.667 100.667V67.3334C182.257 67.3334 167.333 82.2574 167.333 100.667H200.667ZM367.333 100.667H400.667C400.667 82.2574 385.743 67.3334 367.333 67.3334V100.667ZM367.333 334V367.333C385.743 367.333 400.667 352.41 400.667 334H367.333ZM200.667 334H167.333C167.333 352.41 182.257 367.333 200.667 367.333V334ZM234 100.667V134C249.296 134 262.628 123.59 266.338 108.751L234 100.667ZM317.333 34L349.67 25.9154C345.963 11.0767 332.63 0.666687 317.333 0.666687V34ZM250.667 34V0.666687C235.371 0.666687 222.038 11.0767 218.329 25.9154L250.667 34ZM334 100.667L301.663 108.751C305.37 123.59 318.703 134 334 134V100.667ZM367.333 167.333C348.923 167.333 334 182.257 334 200.667C334 219.076 348.923 234 367.333 234V167.333ZM470.383 605.45C454.613 614.95 449.533 635.437 459.037 651.203C468.537 666.973 489.02 672.053 504.79 662.55L470.383 605.45ZM34 667.333H634V600.667H34V667.333ZM167.333 567.333H400.667V500.667H167.333V567.333ZM234 467.333H334V400.667H234V467.333ZM334 100.667V334H400.667V100.667H334ZM367.333 300.667H200.667V367.333H367.333V300.667ZM234 334V100.667H167.333V334H234ZM200.667 134H234V67.3334H200.667V134ZM266.338 108.751L283.003 42.0847L218.329 25.9154L201.662 92.582L266.338 108.751ZM250.667 67.3334H317.333V0.666687H250.667V67.3334ZM284.997 42.0847L301.663 108.751L366.337 92.582L349.67 25.9154L284.997 42.0847ZM334 134H367.333V67.3334H334V134ZM367.333 234C477.79 234 567.333 323.543 567.333 434H634C634 286.723 514.61 167.333 367.333 167.333V234ZM567.333 434C567.333 506.713 528.55 570.4 470.383 605.45L504.79 662.55C582.143 615.94 634 531.043 634 434H567.333Z" fill="#9F1239"/>
</svg>
