<?xml version="1.0" encoding="UTF-8"?>
<svg id="Layer_1" data-name="Layer 1" xmlns="http://www.w3.org/2000/svg" xmlns:xlink="http://www.w3.org/1999/xlink" viewBox="100 0 1911.68 1024.46">
  <defs>
    <style>
      .cls-1 {
        stroke: #ffffff55;
        stroke-miterlimit: 1;
        stroke-width: .8px;
      }

      .cls-1, .cls-2 {
        fill: none;
      }

      .cls-3 {
        opacity: .76;
      }

      .cls-4 {
        clip-path: url(#clippath);
      }

      .cls-5 {
        fill: url(#linear-gradient);
      }
    </style>
    <linearGradient id="linear-gradient" x1="1055.84" y1="-226.68" x2="1055.84" y2="631.12" gradientTransform="translate(0 1026) scale(1 -1)" gradientUnits="userSpaceOnUse">
      <stop offset="0" stop-color="#ba00bb"/>
      <stop offset=".57" stop-color="#5b2cbd"/>
      <stop offset=".86" stop-color="#2e41be"/>
    </linearGradient>
    <clipPath id="clippath">
      <rect class="cls-2" x="95.84" y="37.36" width="1920" height="1080"/>
    </clipPath>
  </defs>
  <g id="BACKGROUND">
    <rect class="cls-5" x="95.84" y="37.36" width="1920" height="1080"/>
    <g class="cls-4">
      <g>
        <g class="cls-3">
          <line class="cls-1" x1="2111.68" y1="102.22" x2="1005.79" y2="102.22"/>
          <line class="cls-1" x1="2111.68" y1="204.45" x2="1005.79" y2="204.45"/>
          <line class="cls-1" x1="2111.68" y1="306.67" x2="1005.79" y2="306.67"/>
          <line class="cls-1" x1="2111.68" y1="408.9" x2="1005.79" y2="408.9"/>
          <line class="cls-1" x1="2111.68" y1="511.12" x2="1005.79" y2="511.12"/>
          <line class="cls-1" x1="2111.68" y1="613.34" x2="1005.79" y2="613.34"/>
          <line class="cls-1" x1="2111.68" y1="715.57" x2="1005.79" y2="715.57"/>
          <line class="cls-1" x1="2111.68" y1="817.79" x2="1005.79" y2="817.79"/>
          <line class="cls-1" x1="2111.68" y1="920.02" x2="1005.79" y2="920.02"/>
          <line class="cls-1" x1="2111.68" y1="1022.24" x2="1005.79" y2="1022.24"/>
          <line class="cls-1" x1="1106.33" y1="1124.46" x2="1106.33"/>
          <line class="cls-1" x1="1206.86" y1="1124.46" x2="1206.86"/>
          <line class="cls-1" x1="1307.4" y1="1124.46" x2="1307.4"/>
          <line class="cls-1" x1="1407.93" y1="1124.46" x2="1407.93"/>
          <line class="cls-1" x1="1508.47" y1="1124.46" x2="1508.47"/>
          <line class="cls-1" x1="1609.01" y1="1124.46" x2="1609.01"/>
          <line class="cls-1" x1="1709.54" y1="1124.46" x2="1709.54"/>
          <line class="cls-1" x1="1810.08" y1="1124.46" x2="1810.08"/>
          <line class="cls-1" x1="1910.61" y1="1124.46" x2="1910.61"/>
          <line class="cls-1" x1="2011.15" y1="1124.46" x2="2011.15"/>
        </g>
        <g class="cls-3">
          <line class="cls-1" x1="1005.37" y1="102.22" y2="102.22"/>
          <line class="cls-1" x1="1005.37" y1="204.45" y2="204.45"/>
          <line class="cls-1" x1="1005.37" y1="306.67" y2="306.67"/>
          <line class="cls-1" x1="1005.37" y1="408.9" y2="408.9"/>
          <line class="cls-1" x1="1005.37" y1="511.12" y2="511.12"/>
          <line class="cls-1" x1="1005.37" y1="613.34" y2="613.34"/>
          <line class="cls-1" x1="1005.37" y1="715.57" y2="715.57"/>
          <line class="cls-1" x1="1005.37" y1="817.79" y2="817.79"/>
          <line class="cls-1" x1="1005.37" y1="920.02" y2="920.02"/>
          <line class="cls-1" x1="1005.37" y1="1022.24" y2="1022.24"/>
          <line class="cls-1" x1="100.54" y1="1124.46" x2="100.54"/>
          <line class="cls-1" x1="201.07" y1="1124.46" x2="201.07"/>
          <line class="cls-1" x1="301.61" y1="1124.46" x2="301.61"/>
          <line class="cls-1" x1="402.14" y1="1124.46" x2="402.14"/>
          <line class="cls-1" x1="502.68" y1="1124.46" x2="502.68"/>
          <line class="cls-1" x1="603.21" y1="1124.46" x2="603.21"/>
          <line class="cls-1" x1="703.75" y1="1124.46" x2="703.75"/>
          <line class="cls-1" x1="804.29" y1="1124.46" x2="804.29"/>
          <line class="cls-1" x1="904.82" y1="1124.46" x2="904.82"/>
          <line class="cls-1" x1="1005.36" y1="1124.46" x2="1005.36"/>
        </g>
      </g>
    </g>
  </g>
</svg>