<?xml version="1.0" encoding="UTF-8"?>
<svg id="Layer_1" data-name="Layer 1" xmlns="http://www.w3.org/2000/svg" xmlns:xlink="http://www.w3.org/1999/xlink" viewBox="0 0 884.8 954.32">
  <defs>
    <style>
      .cls-1 {
        opacity: .83;
      }

      .cls-2 {
        fill: url(#linear-gradient-2);
      }

      .cls-3 {
        clip-path: url(#clippath-2);
      }

      .cls-4 {
        clip-path: url(#clippath-1);
      }

      .cls-5 {
        opacity: .76;
      }

      .cls-6 {
        stroke: #da3095;
        stroke-miterlimit: 10.98;
        stroke-width: .95px;
      }

      .cls-6, .cls-7 {
        fill: none;
      }

      .cls-8 {
        clip-path: url(#clippath);
      }

      .cls-9 {
        fill: url(#linear-gradient);
      }
    </style>
    <linearGradient id="linear-gradient" x1="238.81" y1="1110.03" x2="238.81" y2="286.16" gradientTransform="translate(182.72 73.53) scale(1.1)" gradientUnits="userSpaceOnUse">
      <stop offset="0" stop-color="#ba00bb"/>
      <stop offset=".13" stop-color="#9d00a4"/>
      <stop offset=".64" stop-color="#2d004d"/>
      <stop offset=".86" stop-color="#00002a"/>
    </linearGradient>
    <linearGradient id="linear-gradient-2" x1="-2102.37" y1="1186.17" x2="-2102.37" y2="362.31" gradientTransform="translate(-1867.2 1135.73) rotate(-180) scale(1.1)" gradientUnits="userSpaceOnUse">
      <stop offset="0" stop-color="#ba00bb"/>
      <stop offset=".13" stop-color="#9d00a4"/>
      <stop offset=".64" stop-color="#2d004d"/>
      <stop offset=".86" stop-color="#00002a"/>
    </linearGradient>
    <clipPath id="clippath">
      <rect class="cls-7" x="40.66" y="776.26" width="804.01" height="375.59"/>
    </clipPath>
    <clipPath id="clippath-1">
      <rect class="cls-7" x="40.66" y="401.54" width="804.01" height="375.59"/>
    </clipPath>
    <clipPath id="clippath-2">
      <rect class="cls-7" x="40.14" y="13.33" width="804.01" height="385.55"/>
    </clipPath>
  </defs>
  <g id="BACKGROUND">
    <rect class="cls-9" x="46.16" y="13.33" width="798.51" height="1138.52"/>
    <rect class="cls-2" x="46.16" y="13.33" width="798.51" height="1138.52"/>
    <g class="cls-8">
      <g class="cls-1">
        <g class="cls-5">
          <line class="cls-6" x1="884.8" y1="798.82" x2="421.7" y2="798.82"/>
          <line class="cls-6" x1="884.8" y1="834.37" x2="421.7" y2="834.37"/>
          <line class="cls-6" x1="884.8" y1="869.92" x2="421.7" y2="869.92"/>
          <line class="cls-6" x1="884.8" y1="905.48" x2="421.7" y2="905.48"/>
          <line class="cls-6" x1="884.8" y1="941.03" x2="421.7" y2="941.03"/>
          <line class="cls-6" x1="884.8" y1="976.58" x2="421.7" y2="976.58"/>
          <line class="cls-6" x1="884.8" y1="1012.13" x2="421.7" y2="1012.13"/>
          <line class="cls-6" x1="884.8" y1="1047.68" x2="421.7" y2="1047.68"/>
          <line class="cls-6" x1="884.8" y1="1083.22" x2="421.7" y2="1083.22"/>
          <line class="cls-6" x1="884.8" y1="1118.77" x2="421.7" y2="1118.77"/>
          <line class="cls-6" x1="463.8" y1="1154.32" x2="463.8" y2="763.27"/>
          <line class="cls-6" x1="505.9" y1="1154.32" x2="505.9" y2="763.27"/>
          <line class="cls-6" x1="548" y1="1154.32" x2="548" y2="763.27"/>
          <line class="cls-6" x1="590.1" y1="1154.32" x2="590.1" y2="763.27"/>
          <line class="cls-6" x1="632.2" y1="1154.32" x2="632.2" y2="763.27"/>
          <line class="cls-6" x1="674.3" y1="1154.32" x2="674.3" y2="763.27"/>
          <line class="cls-6" x1="716.4" y1="1154.32" x2="716.4" y2="763.27"/>
          <line class="cls-6" x1="758.5" y1="1154.32" x2="758.5" y2="763.27"/>
          <line class="cls-6" x1="800.6" y1="1154.32" x2="800.6" y2="763.27"/>
          <line class="cls-6" x1="842.7" y1="1154.32" x2="842.7" y2="763.27"/>
        </g>
        <g class="cls-5">
          <line class="cls-6" x1="421.52" y1="798.82" x2=".52" y2="798.82"/>
          <line class="cls-6" x1="421.52" y1="834.37" x2=".52" y2="834.37"/>
          <line class="cls-6" x1="421.52" y1="869.92" x2=".52" y2="869.92"/>
          <line class="cls-6" x1="421.52" y1="905.48" x2=".52" y2="905.48"/>
          <line class="cls-6" x1="421.52" y1="941.03" x2=".52" y2="941.03"/>
          <line class="cls-6" x1="421.52" y1="976.58" x2=".52" y2="976.58"/>
          <line class="cls-6" x1="421.52" y1="1012.13" x2=".52" y2="1012.13"/>
          <line class="cls-6" x1="421.52" y1="1047.68" x2=".52" y2="1047.68"/>
          <line class="cls-6" x1="421.52" y1="1083.22" x2=".52" y2="1083.22"/>
          <line class="cls-6" x1="421.52" y1="1118.77" x2=".52" y2="1118.77"/>
          <line class="cls-6" x1="42.62" y1="1154.32" x2="42.62" y2="763.27"/>
          <line class="cls-6" x1="84.72" y1="1154.32" x2="84.72" y2="763.27"/>
          <line class="cls-6" x1="126.82" y1="1154.32" x2="126.82" y2="763.27"/>
          <line class="cls-6" x1="168.92" y1="1154.32" x2="168.92" y2="763.27"/>
          <line class="cls-6" x1="211.02" y1="1154.32" x2="211.02" y2="763.27"/>
          <line class="cls-6" x1="253.12" y1="1154.32" x2="253.12" y2="763.27"/>
          <line class="cls-6" x1="295.22" y1="1154.32" x2="295.22" y2="763.27"/>
          <line class="cls-6" x1="337.32" y1="1154.32" x2="337.32" y2="763.27"/>
          <line class="cls-6" x1="379.42" y1="1154.32" x2="379.42" y2="763.27"/>
          <line class="cls-6" x1="421.52" y1="1154.32" x2="421.52" y2="763.27"/>
        </g>
      </g>
    </g>
  </g>
  <g class="cls-4">
    <g class="cls-1">
      <g class="cls-5">
        <line class="cls-6" x1="884.8" y1="424.1" x2="421.7" y2="424.1"/>
        <line class="cls-6" x1="884.8" y1="459.65" x2="421.7" y2="459.65"/>
        <line class="cls-6" x1="884.8" y1="495.19" x2="421.7" y2="495.19"/>
        <line class="cls-6" x1="884.8" y1="530.74" x2="421.7" y2="530.74"/>
        <line class="cls-6" x1="884.8" y1="566.29" x2="421.7" y2="566.29"/>
        <line class="cls-6" x1="884.8" y1="601.84" x2="421.7" y2="601.84"/>
        <line class="cls-6" x1="884.8" y1="637.4" x2="421.7" y2="637.4"/>
        <line class="cls-6" x1="884.8" y1="672.95" x2="421.7" y2="672.95"/>
        <line class="cls-6" x1="884.8" y1="708.5" x2="421.7" y2="708.5"/>
        <line class="cls-6" x1="884.8" y1="744.05" x2="421.7" y2="744.05"/>
        <line class="cls-6" x1="463.8" y1="779.6" x2="463.8" y2="388.55"/>
        <line class="cls-6" x1="505.9" y1="779.6" x2="505.9" y2="388.55"/>
        <line class="cls-6" x1="548" y1="779.6" x2="548" y2="388.55"/>
        <line class="cls-6" x1="590.1" y1="779.6" x2="590.1" y2="388.55"/>
        <line class="cls-6" x1="632.2" y1="779.6" x2="632.2" y2="388.55"/>
        <line class="cls-6" x1="674.3" y1="779.6" x2="674.3" y2="388.55"/>
        <line class="cls-6" x1="716.4" y1="779.6" x2="716.4" y2="388.55"/>
        <line class="cls-6" x1="758.5" y1="779.6" x2="758.5" y2="388.55"/>
        <line class="cls-6" x1="800.6" y1="779.6" x2="800.6" y2="388.55"/>
        <line class="cls-6" x1="842.7" y1="779.6" x2="842.7" y2="388.55"/>
      </g>
      <g class="cls-5">
        <line class="cls-6" x1="421.52" y1="424.1" x2=".52" y2="424.1"/>
        <line class="cls-6" x1="421.52" y1="459.65" x2=".52" y2="459.65"/>
        <line class="cls-6" x1="421.52" y1="495.19" x2=".52" y2="495.19"/>
        <line class="cls-6" x1="421.52" y1="530.74" x2=".52" y2="530.74"/>
        <line class="cls-6" x1="421.52" y1="566.29" x2=".52" y2="566.29"/>
        <line class="cls-6" x1="421.52" y1="601.84" x2=".52" y2="601.84"/>
        <line class="cls-6" x1="421.52" y1="637.4" x2=".52" y2="637.4"/>
        <line class="cls-6" x1="421.52" y1="672.95" x2=".52" y2="672.95"/>
        <line class="cls-6" x1="421.52" y1="708.5" x2=".52" y2="708.5"/>
        <line class="cls-6" x1="421.52" y1="744.05" x2=".52" y2="744.05"/>
        <line class="cls-6" x1="42.62" y1="779.6" x2="42.62" y2="388.55"/>
        <line class="cls-6" x1="84.72" y1="779.6" x2="84.72" y2="388.55"/>
        <line class="cls-6" x1="126.82" y1="779.6" x2="126.82" y2="388.55"/>
        <line class="cls-6" x1="168.92" y1="779.6" x2="168.92" y2="388.55"/>
        <line class="cls-6" x1="211.02" y1="779.6" x2="211.02" y2="388.55"/>
        <line class="cls-6" x1="253.12" y1="779.6" x2="253.12" y2="388.55"/>
        <line class="cls-6" x1="295.22" y1="779.6" x2="295.22" y2="388.55"/>
        <line class="cls-6" x1="337.32" y1="779.6" x2="337.32" y2="388.55"/>
        <line class="cls-6" x1="379.42" y1="779.6" x2="379.42" y2="388.55"/>
        <line class="cls-6" x1="421.52" y1="779.6" x2="421.52" y2="388.55"/>
      </g>
    </g>
  </g>
  <g class="cls-3">
    <g class="cls-1">
      <g class="cls-5">
        <line class="cls-6" x1="884.27" y1="36.49" x2="421.18" y2="36.49"/>
        <line class="cls-6" x1="884.27" y1="72.99" x2="421.18" y2="72.99"/>
        <line class="cls-6" x1="884.27" y1="109.48" x2="421.18" y2="109.48"/>
        <line class="cls-6" x1="884.27" y1="145.97" x2="421.18" y2="145.97"/>
        <line class="cls-6" x1="884.27" y1="182.46" x2="421.18" y2="182.46"/>
        <line class="cls-6" x1="884.27" y1="218.95" x2="421.18" y2="218.95"/>
        <line class="cls-6" x1="884.27" y1="255.45" x2="421.18" y2="255.45"/>
        <line class="cls-6" x1="884.27" y1="291.94" x2="421.18" y2="291.94"/>
        <line class="cls-6" x1="884.27" y1="328.44" x2="421.18" y2="328.44"/>
        <line class="cls-6" x1="884.27" y1="364.93" x2="421.18" y2="364.93"/>
        <line class="cls-6" x1="463.28" y1="401.42" x2="463.28"/>
        <line class="cls-6" x1="505.38" y1="401.42" x2="505.38"/>
        <line class="cls-6" x1="547.48" y1="401.42" x2="547.48"/>
        <line class="cls-6" x1="589.58" y1="401.42" x2="589.58"/>
        <line class="cls-6" x1="631.68" y1="401.42" x2="631.68"/>
        <line class="cls-6" x1="673.78" y1="401.42" x2="673.78"/>
        <line class="cls-6" x1="715.88" y1="401.42" x2="715.88"/>
        <line class="cls-6" x1="757.98" y1="401.42" x2="757.98"/>
        <line class="cls-6" x1="800.07" y1="401.42" x2="800.07"/>
        <line class="cls-6" x1="842.18" y1="401.42" x2="842.18"/>
      </g>
      <g class="cls-5">
        <line class="cls-6" x1="421.01" y1="36.49" y2="36.49"/>
        <line class="cls-6" x1="421.01" y1="72.99" y2="72.99"/>
        <line class="cls-6" x1="421.01" y1="109.48" y2="109.48"/>
        <line class="cls-6" x1="421.01" y1="145.97" y2="145.97"/>
        <line class="cls-6" x1="421.01" y1="182.46" y2="182.46"/>
        <line class="cls-6" x1="421.01" y1="218.95" y2="218.95"/>
        <line class="cls-6" x1="421.01" y1="255.45" y2="255.45"/>
        <line class="cls-6" x1="421.01" y1="291.94" y2="291.94"/>
        <line class="cls-6" x1="421.01" y1="328.44" y2="328.44"/>
        <line class="cls-6" x1="421.01" y1="364.93" y2="364.93"/>
        <line class="cls-6" x1="42.1" y1="401.42" x2="42.1"/>
        <line class="cls-6" x1="84.2" y1="401.42" x2="84.2"/>
        <line class="cls-6" x1="126.3" y1="401.42" x2="126.3"/>
        <line class="cls-6" x1="168.4" y1="401.42" x2="168.4"/>
        <line class="cls-6" x1="210.5" y1="401.42" x2="210.5"/>
        <line class="cls-6" x1="252.59" y1="401.42" x2="252.59"/>
        <line class="cls-6" x1="294.7" y1="401.42" x2="294.7"/>
        <line class="cls-6" x1="336.8" y1="401.42" x2="336.8"/>
        <line class="cls-6" x1="378.89" y1="401.42" x2="378.89"/>
        <line class="cls-6" x1="420.99" y1="401.42" x2="420.99"/>
      </g>
    </g>
  </g>
</svg>