<svg width="1206" height="114" viewBox="0 0 1206 114" fill="none" xmlns="http://www.w3.org/2000/svg">
<path fill-rule="evenodd" clip-rule="evenodd" d="M1206 79.6627L1184.07 65.9277C1162.15 53.5663 1118.29 26.0964 1070.05 28.8434C1026.2 30.2169 982.342 60.4337 938.487 64.5542C894.633 68.6747 850.778 45.3253 802.538 45.3253C758.684 45.3253 714.829 68.6747 670.975 70.0482C627.12 72.7952 578.88 53.5663 535.025 43.9518C491.171 34.3373 447.316 34.3373 403.462 45.3253C355.222 57.6867 311.367 79.6627 267.513 93.3976C223.658 105.759 179.804 109.88 135.949 112.627C87.7091 114 43.8545 114 21.9272 114H0V-7.62939e-06H21.9272C43.8545 -7.62939e-06 87.7091 -7.62939e-06 135.949 -7.62939e-06C179.804 -7.62939e-06 223.658 -7.62939e-06 267.513 -7.62939e-06C311.367 -7.62939e-06 355.222 -7.62939e-06 403.462 -7.62939e-06C447.316 -7.62939e-06 491.171 -7.62939e-06 535.025 -7.62939e-06C578.88 -7.62939e-06 627.12 -7.62939e-06 670.975 -7.62939e-06C714.829 -7.62939e-06 758.684 -7.62939e-06 802.538 -7.62939e-06C850.778 -7.62939e-06 894.633 -7.62939e-06 938.487 -7.62939e-06C982.342 -7.62939e-06 1026.2 -7.62939e-06 1070.05 -7.62939e-06C1118.29 -7.62939e-06 1162.15 -7.62939e-06 1184.07 -7.62939e-06H1206V79.6627Z" fill="#01E1BD" fill-opacity="0.1"/>
</svg>
